<svg version="1.1" id="Layer_1" xmlns="http://www.w3.org/2000/svg" xmlns:xlink="http://www.w3.org/1999/xlink" x="0px" y="0px"
	 width="100%" viewBox="0 0 464 528" enable-background="new 0 0 464 528" xml:space="preserve">
<path fill="#501218" opacity="1.000000" stroke="none" 
	d="
M109.468658,529.000000 
	C107.471008,526.155090 106.753410,523.120300 106.762245,519.888367 
	C106.796829,507.231628 106.772964,494.574615 106.839699,481.918091 
	C106.876183,474.998840 108.386635,473.353546 115.295494,473.050659 
	C120.449234,472.824707 125.618637,472.970764 130.780685,472.915680 
	C137.778687,472.841034 144.204865,474.223297 147.937637,480.881958 
	C151.636902,487.480865 149.978867,493.714325 145.790161,499.462189 
	C155.744492,514.437805 154.941132,521.374878 142.249176,528.775391 
	C131.312439,529.000000 120.624878,529.000000 109.468658,529.000000 
M133.371552,515.388428 
	C135.235870,514.425171 137.092590,513.185242 136.353195,510.832458 
	C135.663986,508.639465 133.769608,507.421906 131.351700,507.364105 
	C129.686401,507.324219 128.013824,507.435760 126.354607,507.326263 
	C122.936462,507.100830 122.124786,509.042145 122.061958,511.980865 
	C121.990891,515.305298 123.931625,515.820496 126.590706,515.691956 
	C128.586349,515.595398 130.587051,515.603577 133.371552,515.388428 
M128.213150,486.515564 
	C125.073753,486.456360 121.997963,486.473846 122.070335,490.914337 
	C122.109451,493.314209 122.014290,495.767303 125.523880,495.644653 
	C129.260559,495.514038 133.388840,495.366394 134.334747,490.949432 
	C135.132797,487.222992 131.471283,487.248840 128.213150,486.515564 
z"/>
<path fill="#501218" opacity="1.000000" stroke="none" 
	d="
M209.458069,529.000000 
	C206.941986,526.950806 206.620438,524.395630 206.632278,521.633667 
	C206.690079,508.141296 206.707001,494.648315 206.640244,481.156067 
	C206.622375,477.546906 207.248337,474.534698 211.153320,473.204529 
	C214.973434,471.903259 218.064880,473.038086 220.507462,476.010345 
	C225.899933,482.572052 231.203629,489.206665 236.545151,495.810242 
	C237.578262,497.087433 238.618866,498.358551 240.101440,500.179535 
	C241.352829,495.421387 240.549469,491.194550 240.779633,487.047302 
	C240.936356,484.223206 240.860611,481.380524 241.133255,478.569855 
	C241.589905,473.862244 244.921906,472.585907 248.947540,472.779816 
	C252.968903,472.973541 255.391617,474.974457 255.372864,479.401489 
	C255.310730,494.059723 255.331177,508.718384 255.357971,523.376770 
	C255.361115,525.094727 254.928818,526.658386 254.119354,528.594116 
	C250.638718,529.000000 247.277420,529.000000 243.339233,528.683411 
	C235.866791,519.678955 229.772583,510.341125 221.327133,501.142609 
	C221.327133,504.956116 221.436325,507.399353 221.305969,509.829773 
	C220.962936,516.225342 222.446426,522.749023 220.000000,529.000000 
	C216.638718,529.000000 213.277420,529.000000 209.458069,529.000000 
z"/>
<path fill="#501218" opacity="1.000000" stroke="none" 
	d="
M289.468536,529.000000 
	C278.733765,524.423279 272.106415,516.930725 270.159485,505.629303 
	C268.359833,495.182953 273.843689,483.604309 283.545105,477.512665 
	C293.037170,471.552460 305.759430,471.519318 314.136139,477.659698 
	C316.435913,479.345520 319.452972,481.114197 317.572021,484.919861 
	C315.184509,489.750610 312.058807,491.386932 307.905273,489.661774 
	C302.062653,487.235107 296.451935,486.339722 290.932465,490.482788 
	C285.405396,494.631470 283.521362,501.725922 286.483887,507.859863 
	C289.411163,513.920898 296.919830,517.301758 303.292206,515.590698 
	C305.753540,514.929749 305.670288,513.190125 305.632294,511.318176 
	C305.581879,508.832092 303.931335,508.180481 301.916656,508.381927 
	C297.100128,508.863556 296.469025,506.063080 296.544922,502.210632 
	C296.615906,498.605957 297.752106,496.521423 301.756622,496.644897 
	C306.245575,496.783203 310.743439,496.724487 315.235382,496.641327 
	C318.523224,496.580475 320.271820,498.060760 320.294800,501.354187 
	C320.337708,507.512085 320.337738,513.670654 320.297302,519.828613 
	C320.278961,522.620667 318.671509,524.492554 316.353668,525.752075 
	C314.461151,526.780518 312.467743,527.623230 310.259521,528.774170 
	C303.312347,529.000000 296.624725,529.000000 289.468536,529.000000 
z"/>
<path fill="#501218" opacity="1.000000" stroke="none" 
	d="
M340.468658,529.000000 
	C338.947906,526.512329 338.601349,523.929077 338.613159,521.222717 
	C338.671112,507.918396 338.618469,494.613556 338.648956,481.309052 
	C338.662933,475.196503 340.078033,473.326874 346.050415,473.108093 
	C355.019135,472.779541 364.010284,472.794739 372.984711,472.991272 
	C378.191681,473.105286 381.233978,476.288177 380.924652,480.692688 
	C380.583771,485.545807 377.416229,487.028351 373.044067,487.034393 
	C368.055847,487.041290 363.067871,487.193939 358.079559,487.212158 
	C355.280609,487.222412 353.231232,487.698883 353.291718,491.291504 
	C353.350800,494.802551 355.528137,494.758392 357.988922,494.818054 
	C362.127319,494.918304 366.278961,494.370697 370.401520,495.418549 
	C373.572418,496.224548 375.487305,497.880157 375.278687,501.284393 
	C375.065186,504.768066 373.016541,506.904572 369.639343,507.175629 
	C365.671661,507.494080 361.659821,507.431702 357.674316,507.306488 
	C354.405579,507.203766 353.315643,508.643707 353.286377,511.790680 
	C353.256561,514.997131 354.784760,515.763062 357.597137,515.694092 
	C362.250946,515.579895 366.909637,515.653564 371.566223,515.663574 
	C380.910858,515.683716 383.542114,520.014832 379.120789,528.641479 
	C366.312439,529.000000 353.624878,529.000000 340.468658,529.000000 
z"/>
<path fill="#501218" opacity="1.000000" stroke="none" 
	d="
M173.458069,529.000000 
	C170.278366,520.592834 171.798355,511.867371 171.248779,503.306000 
	C170.740173,495.382935 171.405014,487.379181 171.661026,479.414429 
	C171.817902,474.533569 173.958237,472.642151 178.910889,472.692047 
	C183.795578,472.741272 186.224380,474.744904 186.262009,479.455475 
	C186.377441,493.906281 186.281052,508.358734 186.305435,522.810486 
	C186.308975,524.905518 185.686569,526.718811 184.213013,528.675171 
	C180.638718,529.000000 177.277420,529.000000 173.458069,529.000000 
z"/>
<path fill="#501218" opacity="1.000000" stroke="none" 
	d="
M465.000000,501.583344 
	C462.401215,504.389038 459.308655,505.157532 455.827026,505.148682 
	C440.034882,505.108459 424.242462,505.170166 408.450165,505.197388 
	C406.788910,505.200256 405.150879,505.228302 403.568481,504.496490 
	C401.268677,503.432922 399.517883,501.925110 399.930420,499.201233 
	C400.348755,496.438995 402.064362,494.699738 405.018921,494.695221 
	C423.304260,494.667328 441.589722,494.680511 459.875122,494.661133 
	C461.661316,494.659241 463.059204,495.457184 464.680145,496.773132 
	C465.000000,498.388885 465.000000,499.777802 465.000000,501.583344 
z"/>
<path fill="#501218" opacity="1.000000" stroke="none" 
	d="
M314.148499,26.765697 
	C354.260437,52.835064 380.122162,88.630363 388.703705,135.485519 
	C396.962646,180.579376 387.089813,222.139572 359.786987,259.201904 
	C333.583832,294.771515 297.967468,315.623749 254.591995,320.774933 
	C197.109116,327.601471 148.471573,309.038116 111.737709,263.295013 
	C91.543526,238.148041 79.667130,209.243042 77.667007,176.822174 
	C73.843895,114.852020 98.695404,66.600655 148.878540,31.054539 
	C170.244003,15.920777 194.485199,8.219777 220.494354,5.542192 
	C254.029053,2.089871 284.866821,10.048561 314.148499,26.765697 
M140.756088,266.738251 
	C146.500183,272.076599 152.538315,277.073822 159.198120,281.210297 
	C187.810287,298.981689 218.781662,306.122162 252.311325,301.695496 
	C275.375305,298.650574 297.071075,291.232147 315.245850,276.862396 
	C357.261749,243.642807 377.353668,200.052612 370.638306,146.303833 
	C364.972778,100.957329 341.695312,65.802025 302.266632,42.594555 
	C274.033417,25.976679 243.149551,19.628714 210.471802,25.938007 
	C171.365768,33.488438 140.914062,53.774147 119.380753,87.652351 
	C100.568932,117.248856 92.544075,149.166550 97.613319,183.834229 
	C102.320854,216.028275 117.541084,243.170776 140.756088,266.738251 
z"/>
<path fill="#501218" opacity="1.000000" stroke="none" 
	d="
M86.277534,364.391266 
	C87.604774,361.469360 89.065048,358.976196 89.862946,356.286530 
	C92.160866,348.540375 97.320091,345.445679 105.170433,345.943237 
	C108.651962,346.163910 112.165520,345.817108 115.662025,345.876221 
	C123.393959,346.006866 126.748062,348.968872 126.889526,356.755829 
	C127.083038,367.407959 126.692627,378.069580 126.636818,388.727600 
	C126.576721,400.204224 126.553978,411.681763 126.629173,423.158142 
	C126.682526,431.300110 126.998833,439.442047 126.340302,447.573578 
	C126.273643,448.396576 126.227112,449.272980 125.913887,450.016144 
	C123.363678,456.066925 119.360008,455.710480 107.719429,455.133698 
	C103.202240,454.909912 100.721214,451.534882 100.704323,446.372070 
	C100.654724,431.212128 100.739830,416.051758 100.771492,400.891541 
	C100.774231,399.579376 100.771866,398.267212 100.771866,396.297150 
	C98.597694,397.915405 98.092888,399.835419 97.322456,401.566833 
	C90.554497,416.776611 83.812943,431.998169 77.012695,447.193481 
	C74.870430,451.980408 72.089935,455.567200 65.883461,455.482086 
	C60.580750,455.409363 57.495853,453.211731 55.482578,448.611694 
	C49.608383,435.189850 43.667576,421.797058 37.719639,408.407654 
	C36.262638,405.127777 34.678482,401.904388 32.004608,398.854828 
	C32.004608,401.092377 31.993193,403.330017 32.006489,405.567505 
	C32.083698,418.561462 32.224972,431.555450 32.226044,444.549408 
	C32.226692,452.403168 29.513481,455.097321 21.790482,455.315613 
	C7.396036,455.722412 5.732061,454.003723 5.791118,439.604095 
	C5.899752,413.116119 5.890327,386.627716 5.956908,360.139557 
	C5.962331,357.981964 6.060183,355.811615 6.311933,353.670349 
	C6.825347,349.303558 9.153741,346.899475 13.730008,346.379150 
	C19.881401,345.679657 26.036034,345.789948 32.187233,345.812866 
	C36.633312,345.829437 38.906254,348.948151 40.568691,352.631683 
	C47.417042,367.806061 54.279362,382.974182 61.129280,398.147858 
	C62.692413,401.610443 64.226578,405.086060 66.138214,409.372070 
	C73.003525,394.024902 79.555779,379.377563 86.277534,364.391266 
z"/>
<path fill="#501218" opacity="1.000000" stroke="none" 
	d="
M240.389069,412.025757 
	C233.925201,437.342773 213.381531,455.207306 190.010223,456.210632 
	C163.705063,457.339905 141.110626,439.310089 135.190933,412.379395 
	C129.256592,385.382233 145.565140,354.256866 174.924393,347.126892 
	C207.853333,339.129974 241.216629,364.730133 241.328812,398.690735 
	C241.343063,403.006195 241.770920,407.368225 240.389069,412.025757 
M210.255127,385.345490 
	C201.518936,373.098785 188.992966,369.094910 176.821487,374.658630 
	C165.697479,379.743530 159.741623,390.969147 161.436356,405.466675 
	C163.636627,424.289124 185.007980,436.462616 201.940750,425.136047 
	C214.152084,416.967712 217.716034,400.895874 210.255127,385.345490 
z"/>
<path fill="#501218" opacity="1.000000" stroke="none" 
	d="
M390.738953,436.972595 
	C390.748718,410.489929 390.741699,384.502289 390.782501,358.514740 
	C390.797241,349.135437 392.959442,346.452148 402.369873,346.232147 
	C419.519684,345.831238 436.683441,345.845032 453.839264,345.973389 
	C460.934937,346.026459 464.086975,349.616943 464.236023,356.628906 
	C464.563568,372.039215 463.452118,373.192291 448.168365,373.192047 
	C439.505920,373.191895 430.841339,373.271118 422.182098,373.097290 
	C418.542877,373.024231 417.161652,374.283447 417.267151,378.027527 
	C417.618530,390.497040 415.796417,388.480225 427.878418,388.643585 
	C434.207611,388.729187 440.539246,388.706604 446.869049,388.650970 
	C451.819275,388.607452 454.551239,391.029297 455.557068,395.811127 
	C456.042877,398.120819 456.311676,400.402283 456.157227,402.744751 
	C455.573669,411.594055 452.914307,414.159851 444.016388,414.220306 
	C436.853821,414.268982 429.686127,414.319336 422.528992,414.099823 
	C418.769348,413.984467 417.127869,415.043304 417.239075,419.156647 
	C417.534088,430.066315 416.341156,428.611816 426.457520,428.669708 
	C435.619537,428.722137 444.782349,428.629944 453.944305,428.684540 
	C461.023651,428.726807 463.892487,431.524872 464.241394,438.615204 
	C464.339508,440.608948 464.310760,442.615265 464.222687,444.610626 
	C463.918945,451.491821 460.884094,454.986176 454.107391,455.073822 
	C436.285858,455.304352 418.458801,455.319458 400.636383,455.156494 
	C394.322174,455.098785 391.318878,451.818085 390.857819,445.460205 
	C390.665436,442.807129 390.770996,440.132477 390.738953,436.972595 
z"/>
<path fill="#501218" opacity="1.000000" stroke="none" 
	d="
M247.285721,379.622742 
	C244.594055,372.052185 241.130371,365.173950 239.383591,357.667297 
	C237.990829,351.682068 240.532135,347.675140 246.659348,346.539948 
	C248.455872,346.207123 250.275787,345.925781 252.096878,345.813049 
	C261.537109,345.228668 264.048615,347.041901 267.186676,355.949799 
	C273.816833,374.770691 280.556305,393.553101 287.261963,412.347351 
	C287.481415,412.962463 287.820862,413.534760 288.563965,415.087128 
	C291.135284,408.081757 293.442719,401.832092 295.723846,395.572876 
	C300.852722,381.499786 305.859772,367.381073 311.132141,353.362030 
	C314.093079,345.488922 329.837158,342.656769 335.797974,348.736206 
	C339.420227,352.430542 338.674561,356.711334 337.104034,360.875580 
	C333.521606,370.374481 329.783203,379.815582 326.022980,389.246185 
	C318.501434,408.110046 310.990448,426.978699 303.338043,445.789581 
	C299.684753,454.769958 286.383270,458.961792 277.831421,454.007629 
	C275.034302,452.387329 273.979767,449.470032 272.912964,446.688629 
	C264.389038,424.464233 255.924332,402.217163 247.285721,379.622742 
z"/>
<path fill="#501218" opacity="1.000000" stroke="none" 
	d="
M372.104431,454.756104 
	C367.906189,455.669006 364.059235,455.468018 360.250580,455.242432 
	C354.584717,454.906891 351.766541,452.039612 351.751862,446.233734 
	C351.675140,415.914490 351.696259,385.594849 351.775940,355.275574 
	C351.790100,349.897766 354.119598,347.434601 359.375824,346.531891 
	C361.012909,346.250732 362.667603,346.000214 364.323608,345.912689 
	C375.054169,345.345764 377.676544,348.381622 377.596619,359.232330 
	C377.455627,378.380249 377.899750,397.531708 377.926880,416.681946 
	C377.940765,426.502899 377.485535,436.323975 377.440979,446.145874 
	C377.423218,450.062775 376.086731,452.908997 372.104431,454.756104 
z"/>
<path fill="#501218" opacity="1.000000" stroke="none" 
	d="
M81.567383,505.225586 
	C59.642078,505.235596 38.174767,505.233154 16.707453,505.231934 
	C15.708992,505.231903 14.709637,505.272705 13.712228,505.243042 
	C9.808657,505.126923 5.881239,504.398163 5.872683,499.589752 
	C5.864158,494.798889 9.792435,494.601654 13.483808,494.606934 
	C31.456585,494.632660 49.429546,494.663544 67.402130,494.601868 
	C71.886719,494.586487 76.371422,494.061218 80.853691,494.094208 
	C84.186234,494.118683 87.975571,494.267914 88.239494,498.890167 
	C88.473831,502.994476 85.796516,504.770081 81.567383,505.225586 
z"/>
<path fill="#501218" opacity="1.000000" stroke="none" 
	d="
M309.737305,91.305786 
	C308.112610,85.497566 305.718750,80.707726 299.035309,77.259247 
	C303.232849,83.774910 306.621796,89.162476 306.658325,95.928833 
	C306.709259,105.362854 304.307098,113.350685 295.459778,118.241905 
	C292.254791,120.013779 289.092621,121.866417 285.951447,123.749825 
	C275.713806,129.888199 265.255096,130.850098 254.759827,124.650673 
	C243.825409,118.191856 239.829453,108.155174 240.731079,95.835457 
	C241.390747,86.821732 243.193161,78.064644 246.557571,69.648102 
	C255.033768,48.443756 276.400757,41.214130 296.517059,48.964916 
	C309.028534,53.785576 319.148071,62.234394 326.409149,73.753510 
	C327.926208,76.160172 329.171234,78.707359 329.773743,81.505569 
	C331.420929,89.155754 330.700104,96.069969 323.843018,101.220734 
	C319.335358,104.606689 314.480255,107.294395 308.628418,110.184586 
	C310.126343,103.433167 311.781250,97.631393 309.737305,91.305786 
z"/>
<path fill="#501218" opacity="1.000000" stroke="none" 
	d="
M307.411835,272.495575 
	C297.642181,279.165375 287.543243,283.022186 275.715820,281.505310 
	C265.867126,280.242188 257.787201,275.801117 252.081924,268.073303 
	C241.794006,254.138351 238.403320,238.109009 241.719055,221.232330 
	C245.118866,203.927628 265.405273,194.352921 281.229767,202.054199 
	C286.901642,204.814529 292.367737,208.083130 297.643585,211.551941 
	C305.535614,216.740891 308.986511,230.160568 305.489044,240.430313 
	C304.465851,243.434692 302.990540,246.197510 300.808807,249.126953 
	C309.265656,244.931259 310.591034,240.015533 309.341461,219.123886 
	C329.142365,225.369110 335.564453,238.197754 326.093811,253.558960 
	C321.369446,261.221741 315.128632,267.313293 307.411835,272.495575 
z"/>
<path fill="#501218" opacity="1.000000" stroke="none" 
	d="
M357.710938,143.458237 
	C372.099457,170.817337 355.362457,200.977341 324.888733,202.878082 
	C316.368378,203.409515 308.590302,199.925400 301.147522,196.103363 
	C296.710968,193.825073 292.489929,191.125702 288.181854,188.598816 
	C268.866211,177.269379 272.270966,151.566528 284.671631,142.083084 
	C294.532776,134.541733 305.307404,128.303772 317.547302,125.885956 
	C334.505402,122.536118 347.805237,129.007095 357.710938,143.458237 
z"/>
<path fill="#501218" opacity="1.000000" stroke="none" 
	d="
M158.227234,105.425858 
	C158.402649,106.882607 159.432251,107.952621 157.978516,109.519623 
	C152.023621,105.892586 145.446915,102.836395 140.902298,97.227783 
	C135.728043,90.842087 136.698044,83.292305 140.347214,76.937279 
	C150.620010,59.047115 165.605621,47.286270 186.889267,45.996029 
	C197.553238,45.349560 207.027481,49.694843 213.942963,57.780724 
	C226.217178,72.132256 229.378021,89.228638 226.042404,107.380516 
	C223.426056,121.618355 203.315552,135.080978 186.548309,125.657494 
	C181.178864,122.639778 175.627502,119.919426 170.413986,116.656265 
	C160.976608,110.749397 157.801468,94.549232 163.910721,84.364548 
	C165.418808,81.850441 167.214981,79.509132 169.099152,76.767624 
	C159.320557,81.013847 154.900040,92.806519 158.227234,105.425858 
z"/>
<path fill="#501218" opacity="1.000000" stroke="none" 
	d="
M210.441391,202.355453 
	C224.244034,209.814911 228.762680,221.734146 227.150238,236.110138 
	C225.867249,247.548874 223.247330,258.700958 215.213882,267.825958 
	C202.122360,282.696350 182.723404,286.073212 165.475983,276.163391 
	C156.231735,270.851929 148.478897,263.864075 142.528961,255.017410 
	C134.280334,242.752914 136.305634,232.455032 148.443222,224.230698 
	C151.451996,222.191986 154.532227,220.218719 158.851013,219.262604 
	C155.787064,232.309555 155.248306,244.429474 168.883514,251.930923 
	C163.731506,245.669037 159.867538,238.977844 160.620728,230.416214 
	C161.391632,221.653366 164.189194,214.242233 172.465271,209.799911 
	C177.596054,207.045883 182.496628,203.872925 187.925156,201.670013 
	C195.412460,198.631638 202.796494,198.322525 210.441391,202.355453 
z"/>
<path fill="#501218" opacity="1.000000" stroke="none" 
	d="
M114.027824,139.068939 
	C126.362854,124.621475 144.173599,121.084137 162.210983,129.701630 
	C168.065598,132.498703 173.854950,135.401489 179.356476,138.861267 
	C198.026047,150.602142 198.156891,176.350647 179.530106,188.229767 
	C173.075378,192.346237 166.263123,195.854477 159.280090,198.983917 
	C142.625839,206.447556 123.716148,201.805389 113.071556,187.749908 
	C101.842445,172.922607 102.128197,153.590271 114.027824,139.068939 
M185.743439,165.850189 
	C186.173141,162.307938 185.387985,159.022186 183.637039,155.431976 
	C183.807709,161.855759 184.287582,164.392365 185.743439,165.850189 
z"/>
<path fill="#501218" opacity="1.000000" stroke="none" 
	d="
M213.077393,138.497681 
	C217.113525,141.027756 217.910965,144.487823 216.719635,149.591446 
	C220.952744,144.486694 226.114319,142.937012 231.010086,140.912857 
	C226.027100,132.968124 225.552231,129.934082 228.989838,127.007034 
	C232.073929,124.380989 235.562485,123.644981 239.005051,126.327629 
	C242.557541,129.095963 242.215897,133.709259 238.069946,140.368439 
	C239.664993,142.132385 242.107025,142.357864 244.081848,143.415207 
	C245.963486,144.422668 247.893524,145.339691 250.240051,146.515930 
	C251.797836,141.246643 253.822235,136.558243 260.357697,137.839523 
	C263.789368,138.512299 265.923889,140.630280 266.306610,144.280655 
	C267.141632,152.245255 260.652100,152.356400 255.033417,153.944565 
	C257.684967,160.335648 257.863159,166.437088 255.928650,172.716705 
	C254.981583,175.791000 257.946625,175.378448 259.788025,175.750015 
	C264.121735,176.624466 266.505463,179.077957 266.349640,183.718567 
	C266.208221,187.929474 263.780548,190.040909 259.973724,190.854141 
	C256.231934,191.653473 254.091537,189.409607 252.312759,186.566315 
	C251.438431,185.168777 251.785858,183.218506 249.681686,181.694611 
	C239.433899,189.183853 228.785843,189.467834 217.796829,180.539963 
	C216.549606,186.597061 214.663345,191.959076 207.258240,190.102219 
	C203.912613,189.263290 201.731873,187.107498 201.712219,183.357239 
	C201.687836,178.705505 203.977463,176.997177 213.405594,174.824173 
	C210.992493,167.564758 210.792450,160.263107 214.187836,152.700241 
	C209.246506,153.364853 205.229660,152.901932 202.972488,148.513733 
	C201.538666,145.726227 201.961304,142.953064 203.782043,140.514343 
	C206.102448,137.406357 209.245132,137.053207 213.077393,138.497681 
M225.283920,166.069427 
	C226.845688,171.860550 231.429276,175.292725 235.863556,173.991425 
	C241.537064,172.326477 244.647797,167.592285 243.536423,162.314072 
	C242.645569,158.083054 237.885269,154.257111 233.764511,154.460098 
	C228.602463,154.714401 225.363892,158.813370 225.283920,166.069427 
z"/>
<path fill="#501218" opacity="1.000000" stroke="none" 
	d="
M116.589340,198.435516 
	C124.597435,204.886261 134.123734,206.237106 143.611084,208.317047 
	C137.034515,211.942627 130.858093,215.831116 123.627419,217.231827 
	C118.932549,218.141296 115.687546,215.654327 113.125961,212.015030 
	C108.630676,205.628510 107.979156,198.184265 106.914085,190.022522 
	C111.547569,191.704376 112.858170,196.257690 116.589340,198.435516 
z"/>
<path fill="#501218" opacity="1.000000" stroke="none" 
	d="
M224.153778,285.855530 
	C221.145065,290.209320 216.958099,291.907898 212.385605,292.057648 
	C205.584030,292.280304 199.015701,290.805084 191.582687,287.537994 
	C206.073990,283.434113 217.079590,276.154297 225.425308,264.539368 
	C225.938583,271.798553 227.841187,278.779175 224.153778,285.855530 
z"/>
<path fill="#501218" opacity="1.000000" stroke="none" 
	d="
M111.925400,117.154182 
	C117.306107,110.300949 120.242630,109.265762 128.103806,111.852135 
	C133.585541,113.655663 138.687714,116.342133 144.686951,120.169342 
	C129.032379,121.104919 116.492508,126.019760 107.544273,138.300461 
	C107.901924,130.962967 108.708923,123.999252 111.925400,117.154182 
z"/>
<path fill="#501218" opacity="1.000000" stroke="none" 
	d="
M328.338135,210.929565 
	C327.105927,210.121613 325.812317,209.829178 325.799347,207.838745 
	C339.526215,206.705460 351.478638,201.779236 360.127228,190.017395 
	C359.804810,198.840851 359.122192,207.482697 352.996124,214.423264 
	C349.747101,218.104218 345.234589,218.161438 340.951355,216.601761 
	C336.741943,215.069000 332.743164,212.957703 328.338135,210.929565 
z"/>
<path fill="#501218" opacity="1.000000" stroke="none" 
	d="
M195.769470,38.432983 
	C201.697388,36.494678 207.342865,35.366909 213.249008,35.632980 
	C220.109207,35.942024 224.962814,39.885418 226.115234,46.532200 
	C226.424316,48.314884 226.326157,50.174816 226.343628,51.999969 
	C226.375046,55.282299 226.352509,58.565144 225.787781,62.241970 
	C217.000839,51.816315 207.464478,42.893894 193.675674,40.853886 
	C193.402069,39.073616 194.441925,38.852436 195.769470,38.432983 
z"/>
<path fill="#501218" opacity="1.000000" stroke="none" 
	d="
M246.652222,38.471222 
	C256.147308,33.043495 264.775604,36.614857 273.723206,40.017643 
	C260.383179,43.909664 250.165054,51.660446 242.483322,63.187828 
	C242.233139,54.622925 238.977097,45.846233 246.652222,38.471222 
z"/>
<path fill="#501218" opacity="1.000000" stroke="none" 
	d="
M272.676208,289.264099 
	C265.707062,290.708252 259.258270,293.097046 252.282471,291.436676 
	C246.801514,290.132080 242.462860,286.262360 241.857529,280.822906 
	C241.274399,275.582977 241.258743,270.280975 241.878937,265.050079 
	C243.421616,264.705078 243.783142,265.854492 244.270874,266.599457 
	C250.928055,276.767334 260.262939,283.201141 271.848755,286.552094 
	C273.908508,287.147858 273.891632,287.206207 272.676208,289.264099 
z"/>
<path fill="#501218" opacity="1.000000" stroke="none" 
	d="
M347.623657,110.747147 
	C351.959930,111.626122 354.544556,114.198021 356.102570,117.653336 
	C358.747162,123.518585 359.964661,129.735413 359.994934,136.390045 
	C350.791229,125.922081 339.267517,120.881577 325.613495,119.622414 
	C332.287811,115.096436 338.929352,110.967537 347.623657,110.747147 
z"/>
<path fill="#501218" opacity="1.000000" stroke="none" 
	d="
M228.737396,202.284027 
	C226.722443,200.110596 226.433914,197.851547 226.837784,195.463562 
	C227.620316,190.836487 231.467804,187.993408 235.729355,188.836197 
	C239.754135,189.632156 242.425522,194.026688 241.584702,198.468491 
	C240.787628,202.679199 237.090408,205.115967 232.632874,204.183807 
	C231.378601,203.921524 230.237289,203.119186 228.737396,202.284027 
z"/>
</svg>